<svg xmlns="http://www.w3.org/2000/svg" viewBox="0 0 172.04 33.59"><path d="M154.48.45c-.39.39-.45.63-.45 1.4s.08 1 .41 1.36a2.33 2.33 0 003.14-.14 2.91 2.91 0 000-2.26c-.33-.62-.69-.8-1.72-.81-.78 0-.99.07-1.38.45zM4.37 6.17a5.35 5.35 0 00-3.9 3.92c-.16.81.07.93 2 1.09L4 11.3l.34-.78a2.06 2.06 0 011.93-1.4c1.31 0 1.92.64 1.92 2.13v.81l-1.7.21C2 12.79 0 14.44 0 17.67a4.14 4.14 0 001 3.24c.83 1 1.75 1.32 3.48 1.32a5.37 5.37 0 003.72-1.29l.67-.53.38.46c.59.77 1.25 1.3 1.56 1.3a7.07 7.07 0 002.74-2.52.7.7 0 00-.19-.52 3.68 3.68 0 01-.61-1c-.4-.85-.41-1-.41-4.63 0-4.35-.14-5.09-1.17-6.06a6 6 0 00-1.09-.85 9.38 9.38 0 00-5.71-.42zm3.81 9.55a3.71 3.71 0 01-1.2 3c-1.49 1.25-3.17-.22-2.61-2.3.29-1.09 1.56-1.85 3.17-1.88h.64zm33.09-9.55a4.94 4.94 0 00-3.62 3c-.44 1-.45 1.49-.06 1.71a8.53 8.53 0 001.8.28l1.53.12.17-.49a2.08 2.08 0 012.18-1.68 1.37 1.37 0 011.32.54 1.74 1.74 0 01.48 1.47v.92l-1.7.21c-4 .47-5.68 1.57-6.35 4.14a5.12 5.12 0 001 4.76 4.2 4.2 0 003.29 1.06A5.32 5.32 0 0045.07 21l.69-.58.3.44c.48.69 1.28 1.36 1.61 1.36a8.38 8.38 0 002.77-2.39 4.44 4.44 0 00-.55-1.14l-.58-.86-.1-4.35a31.78 31.78 0 00-.27-4.78 5.21 5.21 0 00-1.86-2 9.26 9.26 0 00-5.81-.53zm3.81 9.55c0 1.88-.85 3.25-2.12 3.44-1.66.28-2.49-2.08-1.24-3.57a4 4 0 012.72-1h.64zm59.49-9.55a12.7 12.7 0 00-2.27.92l-1.23.67-.15-.64-.16-.62h-2.6v15.41h3v-12l1.15-.54c1.52-.71 3.38-1 4.26-.61 1.23.52 1.25.68 1.35 7.31l.09 5.89H111v-12l1.09-.52c2-.92 4-1.06 4.78-.3s.78 1 .88 7.07l.09 5.8h3v-6.13c0-6.72 0-7.42-.94-8.5-1.38-1.65-4.47-1.84-7.43-.44a15.14 15.14 0 00-1.54.82c-.29.22-.4.19-1.13-.56-1.14-1.31-2.8-1.6-5.23-1.03zm39.88-.1a4.51 4.51 0 00-3.69 4.9c.26 1.94 1.33 3 3.9 4 3.63 1.4 4.17 1.76 4.17 2.87a2.16 2.16 0 01-1.51 1.91 13.65 13.65 0 01-5.09-.28c-1.5-.42-1.71-.33-1.71.76s.21 1.3 1.78 1.78a13.42 13.42 0 006.3.09 5.48 5.48 0 002.84-2.46 5.69 5.69 0 000-3.86c-.64-1.25-1.44-1.77-4.86-3.14a13.33 13.33 0 01-2.2-1 1.71 1.71 0 01-.2-2.42 1.6 1.6 0 01.49-.4 8 8 0 014.38-.07 9.84 9.84 0 001.42.26c.42 0 .43 0 .43-1a2.16 2.16 0 00-.2-1.2c-.78-.64-4.8-1.11-6.25-.74zM21.26 6.4a4.34 4.34 0 00-1.85 1.8c0 .12-.07-.23-.13-.75l-.1-1h-3.64v15.46h3.81l.09-5.28c.07-4.61.12-5.35.4-5.84a1.53 1.53 0 011.56-.91 1.26 1.26 0 011 .45l.42.45.08 5.56c.1 3.06.1 5.59.1 5.66s.92 0 2 0l2-.09.09-5.37a33.3 33.3 0 01.29-5.73 1.72 1.72 0 012.33-.7 1.27 1.27 0 01.27.18l.49.41.09 5.62.08 5.59h3.81l.06-6.29a58.55 58.55 0 00-.16-7A4 4 0 0032 6.27a4.32 4.32 0 00-4.85 1.42l-.5.75-.53-.82A3.41 3.41 0 0023 6.06a4.43 4.43 0 00-1.74.34zm47.63-.11A6.49 6.49 0 0065 10.55a14.73 14.73 0 00-.26 6.3 7.2 7.2 0 003.48 4.94 4.27 4.27 0 002.6.47 4.67 4.67 0 002.7-.49c2.44-1.2 3.79-3.86 3.79-7.48S76 7.88 73.57 6.62a4.75 4.75 0 00-2.43-.5 7.42 7.42 0 00-2.25.17zm2.84 3.15c.85.44 1.11 1.39 1.2 4.33a16.65 16.65 0 01-.12 3.31c-.64 2.39-2.49 2.84-3.48.85-.38-.78-.43-1.13-.48-3.39-.09-3 .15-4.18 1-4.9a1.48 1.48 0 011.86-.2zm13.36-2.99a4.59 4.59 0 00-1.34 1.14l-.57.76v-.69c0-1.25 0-1.25-2-1.25h-1.8V22l2-.05 1.94-.06.09-5.11c.08-4.65.12-5.17.43-5.8.66-1.31 2.11-1.55 2.82-.46.26.4.31 1.16.38 5.92l.09 5.46h3.81V9.1l-.47-.95a3.46 3.46 0 00-3.58-2.08 3.64 3.64 0 00-1.8.38zm80.64-.19a8.2 8.2 0 00-3.22 1.82c-1.4 1.61-1.95 3.37-1.94 6.21a18.11 18.11 0 00.19 2.76 6.59 6.59 0 003.64 4.66 6.06 6.06 0 002.93.6 8.91 8.91 0 004.24-.59c.44-.24.47-.32.47-1.36 0-1.29.09-1.23-1.65-.87-3.36.71-5.54-.22-6.25-2.65a12.29 12.29 0 010-5.33c.69-2.38 3.06-3.35 6.3-2.59 1.37.33 1.57.2 1.57-1 0-1-.24-1.26-1.17-1.55a18 18 0 00-5.11-.11zm-113 .14c-.15.08-.21.53-.17 1.59v1.46l2.56.08 2.55.09-2.86 4.16L52 17.92v1.84l.05 1.81h.52a7.81 7.81 0 001.82-.5 6.86 6.86 0 013.2-.48 7.14 7.14 0 013.2.48 7.6 7.6 0 001.81.5h.52l.06-1.52c.05-1.4 0-1.55-.37-1.93a8.27 8.27 0 00-4-1.24 7.1 7.1 0 01-1.2-.18s1.18-1.75 2.6-3.81l2.6-3.74V7.8c0-1.07 0-1.37-.27-1.46a98.78 98.78 0 00-9.81.06zm71.97.12c-.07.07-.12 2.87-.12 6.22 0 6.94.07 7.43 1.2 8.55 1.64 1.65 4.75 1.65 7.78 0 .71-.36 1.3-.67 1.35-.67s.07.15.07.36c0 .83.27 1 1.54 1 1.09 0 1.2 0 1.3-.4s.14-14.29 0-14.81-.17-.4-1.61-.34h-1.49l-.05 6v6l-.85.45c-1.78 1-4 1.22-5 .54s-1-1.07-1.08-7.26l-.09-5.71h-1.38a5.6 5.6 0 00-1.57.07zm29.76.1c-.05.12-.07 3.62-.05 7.76l.05 7.54h2.94V6.5l-1.4-.06c-1.07-.03-1.49.02-1.54.18zM56.07 22.63c-1.68.26-4 1.23-4.15 1.76s.19.58 2.37.37 3.5-.14 4.05.26.35 1.59-.47 3.9-.88 2.68-.4 2.75c.73.1 2.36-2.18 3.09-4.33a10.29 10.29 0 00.52-3.65 1 1 0 00-.7-.75 14.84 14.84 0 00-4.31-.31z" fill="#606060"/><path d="M12.81 23.68c-.4.38.14 1 2.68 2.91a34.83 34.83 0 0017.18 6.86 41 41 0 005.2.1 28.21 28.21 0 005.8-.54c4.82-1 9.68-3 12.54-5.17.7-.54.83-1.13.37-1.53s-.26-.28-4.32 1.13a42.23 42.23 0 01-13.77 2.47 45.65 45.65 0 01-22.69-5.16c-2.25-1.14-2.75-1.33-2.99-1.07z" fill="#606060"/></svg>