<svg xmlns="http://www.w3.org/2000/svg" viewBox="0 0 108.75 25.86"><path d="M17.16 13.71a5.42 5.42 0 012.72-4.92 6 6 0 00-4.61-2.56 6.61 6.61 0 00-2.78.52 13.16 13.16 0 01-2 .67 6 6 0 01-1.89-.57 6.38 6.38 0 00-2.32-.57 5.82 5.82 0 00-3 .9 6.45 6.45 0 00-2.22 2.36A9 9 0 000 14a14.74 14.74 0 00.78 4.66 15.74 15.74 0 001.87 3.9 12.6 12.6 0 001.77 2.22 3 3 0 002.22 1 5.7 5.7 0 001.92-.55 5.61 5.61 0 012.22-.49 5.27 5.27 0 012.14.49 5.44 5.44 0 002 .52 3.34 3.34 0 002.17-1 6.22 6.22 0 00.77-.85c.32-.42.62-.85.92-1.29s.47-.77.69-1.17a11.4 11.4 0 00.62-1.32c.08-.19.16-.38.23-.58s.13-.4.2-.61a5.72 5.72 0 01-3.38-5.25zm18.29 4.61h-.12L30.2 6.61h-4V25.5h3.51V13.27h.16L34.13 23h2.46l4.27-9.71H41V25.5h3.55V6.61h-4zM14 4.14A5.74 5.74 0 0015.32.52V.26a1.15 1.15 0 000-.26 5.11 5.11 0 00-2 .59A5.64 5.64 0 0011.58 2a5.35 5.35 0 00-1.36 3.49v.21a1.07 1.07 0 000 .25A4.18 4.18 0 0014 4.14zm71.55 2.47h3.94V25.5h-3.94zm15.85 3A3.51 3.51 0 01105 13v.31h3.78V13c0-3.66-2.79-6.7-7.38-6.7-4.92 0-7.86 3.24-7.86 8.76v2.13c0 5.52 2.91 8.72 7.85 8.72 4.71 0 7.39-3.09 7.39-6.52v-.42H105a3.35 3.35 0 01-3.11 3.58 3.09 3.09 0 01-.43 0c-2.4 0-3.92-1.7-3.92-5.34V15c0-3.63 1.54-5.42 3.89-5.42zm-41.75 8.93c0 2.53-1.49 3.93-3.66 3.93s-3.67-1.39-3.67-3.93V6.61H48.4v12.48c0 4 2.86 6.77 7.59 6.77s7.58-2.74 7.58-6.77V6.61h-3.92zm17-4l-2.81-.64c-1.65-.34-2.52-1.08-2.52-2.17 0-1.45 1.18-2.37 3.08-2.37 2.15 0 3.22 1.23 3.32 2.56h3.67c0-3.33-2.83-5.66-7-5.66-3.92 0-7 2.07-7 5.77 0 3.21 2.17 4.7 4.78 5.28l2.79.65c1.87.43 2.83 1 2.83 2.33 0 1.47-1.17 2.47-3.36 2.47-2.35 0-3.59-1.25-3.7-2.64h-3.82c0 2.67 1.82 5.78 7.28 5.78 4.6 0 7.44-2.28 7.44-6 0-3.43-2.3-4.78-5-5.37z" fill="#606060"/></svg>