<svg xmlns="http://www.w3.org/2000/svg" viewBox="0 0 108.35 31.33"><path d="M26.93 23a22.33 22.33 0 01-2 3.8c-1.33 2-3.19 4.52-5.5 4.55-2 0-2.58-1.34-5.36-1.32s-3.37 1.34-5.42 1.32c-2.31 0-4.08-2.28-5.4-4.3C-.48 21.4-.86 14.8 1.42 11.29A8.17 8.17 0 018 7.34c2.45 0 4 1.34 6 1.34s3.16-1.35 6-1.35a8 8 0 016 3.18A6.89 6.89 0 0026.93 23z" fill="#606060"/><path d="M17.85 5.09A6.86 6.86 0 0019.37 0a7.42 7.42 0 00-4.79 2.58 6.37 6.37 0 00-1.56 5 6.28 6.28 0 004.83-2.49zM36.31 14a2.07 2.07 0 01-2.07 2.07h-.16a2.08 2.08 0 01-.08-4.13h.14a2.06 2.06 0 012.2 1.93zm-4.26 17V17.74h4.13V31zm11.12-14.82h-4.92v-3.47h14.08v3.47h-5V31h-4.16zm22.28 10.58c0 1.74.06 3.15.11 4.27H62l-.19-1.88h-.11a4.75 4.75 0 01-4.16 2.18c-2.69 0-4.68-1.69-4.68-5.79v-7.8H57v7.15c0 1.93.63 3.1 2.07 3.1a2.24 2.24 0 002.07-1.44 2.52 2.52 0 00.13-.9v-7.91h4.16v9zM68.77 22c0-1.66-.06-3.08-.11-4.24h3.59l.19 1.82h.08a4.85 4.85 0 014.1-2.12c2.72 0 4.75 1.79 4.75 5.71V31h-4.13v-7.34c0-1.71-.6-2.88-2.09-2.88a2.2 2.2 0 00-2.09 1.55 2.78 2.78 0 00-.16 1V31h-4.14v-9zm19.11 3.7c.13 1.72 1.82 2.53 3.75 2.53a11.74 11.74 0 003.67-.54l.54 2.8a13.18 13.18 0 01-4.81.84c-4.51 0-7.1-2.64-7.1-6.8 0-3.37 2.1-7.09 6.72-7.09 4.29 0 5.92 3.34 5.92 6.63a9.86 9.86 0 01-.13 1.63zm4.86-2.82a2.4 2.4 0 00-2.09-2.68h-.25a2.72 2.72 0 00-2.55 2.7zM99 27.41a7.94 7.94 0 003.56 1c1.25 0 1.77-.43 1.77-1.11s-.41-1-2-1.52c-2.74-.93-3.8-2.42-3.78-4 0-2.5 2.12-4.38 5.41-4.38a9 9 0 013.76.76l-.72 2.89a6.31 6.31 0 00-2.88-.76c-1 0-1.58.4-1.58 1.08s.52.95 2.15 1.52c2.53.87 3.59 2.15 3.62 4.1 0 2.48-2 4.33-5.77 4.33a9.38 9.38 0 01-4.29-1z" fill="#606060"/></svg>