<svg xmlns="http://www.w3.org/2000/svg" viewBox="0 0 126.4 24.17"><path d="M29.59 16c0 5.07 3.12 8.1 7.76 8.1 2.31 0 4.26-.65 5.34-2.34v2.34h4.24V0h-4.4v10.26c-1-1.69-2.85-2.45-5.16-2.45-4.52 0-7.78 3.08-7.78 8.23zm13.08 0a4.38 4.38 0 01-4 4.69h-.31C35.88 20.74 34 18.93 34 16s1.9-4.79 4.33-4.79 4.34 1.91 4.34 4.79zm17.95 1.91a3.55 3.55 0 01-3.79 2.81c-2.34 0-4.26-1.42-4.31-3.92H63.6a9 9 0 00.2-2c0-4.49-3-7-7.57-7a7.79 7.79 0 00-8.12 7.45v.63c0 5.18 3.65 8.29 8.7 8.29 3.82 0 6.41-1.59 7.55-4.76zm-8.1-4A3.65 3.65 0 0156.25 11c2 0 3.31 1.06 3.31 2.73v.14zm24.41 4a3.54 3.54 0 01-3.79 2.81c-2.34 0-4.26-1.42-4.31-3.92h11.09a9 9 0 00.2-2c0-4.49-3.06-7-7.57-7a7.79 7.79 0 00-8.12 7.45v.63c0 5.18 3.66 8.29 8.71 8.29 3.82 0 6.41-1.59 7.55-4.76zm-8.1-4A3.66 3.66 0 0172.56 11c2 0 3.31 1.06 3.31 2.73v.14zm26.81 10.26v-4H86.4l9-8.75V7.8H81.17v3.79h8.68l-9 8.78v3.8zm12.85-6.26a3.54 3.54 0 01-3.79 2.81c-2.34 0-4.26-1.42-4.31-3.92h11.09a9 9 0 00.2-2c0-4.49-3.06-7-7.57-7A7.79 7.79 0 0096 15.23v.63c0 5.18 3.66 8.29 8.71 8.29 3.82 0 6.41-1.59 7.55-4.76zm-8.1-4a3.66 3.66 0 013.73-2.91c2 0 3.31 1.06 3.31 2.73v.14zM19.65 7.8h5.42v3.17h-5.42zm0 4.4h5.42v3.17h-5.42zm0 4.4h5.42v3.17h-5.42zM0 20.99h5.42v3.17H0zm6.55 0h5.42v3.17H6.55zm6.56 0h5.42v3.17h-5.42zm6.54 0h5.42v3.17h-5.42zm-6.54-4.39h5.42v3.17h-5.42zm-6.56 0h5.42v3.17H6.55zm0-4.4h5.42v3.17H6.55zm115.55 1.25v.47h4.29v-1.25a4.5 4.5 0 00-4.14-4.84h-.56a4.07 4.07 0 00-3.93 2.46V7.82h-4.43v16.35h4.43V13.64c0-1.67.9-2.59 2.27-2.59a2.25 2.25 0 012.07 2.4z" fill="#606060"/></svg>