<svg xmlns="http://www.w3.org/2000/svg" viewBox="0 0 122.84 31.42"><path d="M65 12.19c-.8 4.07-1.42 9-1.74 11.1h-.22c-.26-2.12-.87-7.06-1.7-11.07l-2.06-10H53v26.95h3.89V7l.42 2 3.95 20.13h3.88L69 9l.44-2v22.17h3.88V2.24H67zm18.83 12.93a2.18 2.18 0 01-1.89 1.25c-.9 0-1.25-.7-1.25-2.44V9.49h-4.43v14.7c0 3.63 1.18 5.3 3.82 5.3a4.5 4.5 0 004.23-2.73h.1l.38 2.41h3.47V9.49h-4.43zm13-7.86c-1.45-1.06-2.34-1.77-2.34-3.31a1.5 1.5 0 011.28-1.7 1.69 1.69 0 01.45 0c1.25 0 1.67.87 1.7 3.82l3.72-.16c.29-4.78-1.28-6.77-5.36-6.77-3.79 0-5.65 1.7-5.65 5.2 0 3.17 1.54 4.61 4.05 6.51 2.15 1.67 3.4 2.6 3.4 3.95a1.64 1.64 0 01-1.52 1.74h-.25c-1.31 0-2.09-1.25-1.89-3.43l-3.76.07c-.58 4.07 1.06 6.45 5.42 6.45 3.83 0 5.81-1.77 5.81-5.3.01-3.22-1.59-4.51-5.06-7.07zm7.51-7.77h4.24v19.68h-4.24zm2.15-7.77c-1.64 0-2.41.61-2.41 2.73s.77 2.73 2.41 2.73 2.4-.55 2.4-2.73-.73-2.73-2.4-2.73zm16.34 20.35l-3.89-.19c0 3.47-.38 4.58-1.7 4.58s-1.54-1.25-1.54-5.33v-3.82c0-3.94.26-5.2 1.58-5.2s1.54 1.19 1.54 4.85l3.85-.26c.26-3-.13-5.13-1.31-6.32a5.43 5.43 0 00-4-1.28c-4.3 0-6.07 2.31-6.07 8.79v2.76c0 6.67 1.51 8.82 5.91 8.82a5.51 5.51 0 004-1.22c1.24-1.14 1.72-3.13 1.63-6.18zM22.44 31.42c-.14 0-14.07 0-17.53-.93a5.63 5.63 0 01-4-4C0 23.06 0 15.78 0 15.71s0-7.34.94-10.8a5.61 5.61 0 014-4C8.37 0 22.3 0 22.44 0S36.52 0 40 .94a5.64 5.64 0 014 4c.92 3.46.93 10.73.93 10.8s0 7.34-.93 10.8a5.66 5.66 0 01-4 4c-3.48.87-17.42.88-17.56.88zM18 9v13.44l11.66-6.73z" fill="#606060"/></svg>